REM MD5 0a221e099b30d7ac85d13bbfb8799945
FILE "Treasures of the Deep (Spain).bin" BINARY
  TRACK 01 MODE2/2352
    INDEX 01 00:00:00
  TRACK 02 AUDIO
    INDEX 00 42:38:41
    INDEX 01 42:40:41
  TRACK 03 AUDIO
    INDEX 00 45:12:21
    INDEX 01 45:14:21
REM LEADOUT 47:09:51
